<mxfile host="app.diagrams.net" agent="Mozilla/5.0 (Windows NT 10.0; Win64; x64) AppleWebKit/537.36 (KHTML, like Gecko) Chrome/130.0.0.0 Safari/537.36" version="24.8.0">
  <diagram name="Strona-1" id="C58AG_hO-gt4kJ-yjQtp">
    <mxGraphModel dx="1480" dy="623" grid="1" gridSize="10" guides="1" tooltips="1" connect="1" arrows="1" fold="1" page="1" pageScale="1" pageWidth="827" pageHeight="1169" math="0" shadow="0">
      <root>
        <mxCell id="0" />
        <mxCell id="1" parent="0" />
        <mxCell id="YKE_uLJafV-SLsbZgX32-1" value="Proces" style="text;html=1;align=center;verticalAlign=middle;resizable=0;points=[];autosize=1;strokeColor=none;fillColor=none;fontSize=18;" parent="1" vertex="1">
          <mxGeometry x="205" y="108" width="70" height="30" as="geometry" />
        </mxCell>
        <mxCell id="YKE_uLJafV-SLsbZgX32-2" value="Legenda" style="text;html=1;align=center;verticalAlign=middle;resizable=0;points=[];autosize=1;strokeColor=none;fillColor=none;fontSize=18;" parent="1" vertex="1">
          <mxGeometry x="64" y="40" width="90" height="30" as="geometry" />
        </mxCell>
        <mxCell id="YKE_uLJafV-SLsbZgX32-3" value="Podmiot zewnetrzny" style="text;html=1;align=center;verticalAlign=middle;resizable=0;points=[];autosize=1;strokeColor=none;fillColor=none;fontSize=18;" parent="1" vertex="1">
          <mxGeometry x="205" y="206" width="180" height="30" as="geometry" />
        </mxCell>
        <mxCell id="YKE_uLJafV-SLsbZgX32-4" value="Baza danych" style="text;html=1;align=center;verticalAlign=middle;resizable=0;points=[];autosize=1;strokeColor=none;fillColor=none;fontSize=18;" parent="1" vertex="1">
          <mxGeometry x="208" y="290" width="132" height="36" as="geometry" />
        </mxCell>
        <mxCell id="YKE_uLJafV-SLsbZgX32-5" value="" style="endArrow=none;html=1;rounded=0;" parent="1" edge="1">
          <mxGeometry width="50" height="50" relative="1" as="geometry">
            <mxPoint x="61" y="277.83000000000004" as="sourcePoint" />
            <mxPoint x="157" y="277.83000000000004" as="targetPoint" />
          </mxGeometry>
        </mxCell>
        <mxCell id="YKE_uLJafV-SLsbZgX32-6" value="" style="endArrow=none;html=1;rounded=0;" parent="1" edge="1">
          <mxGeometry width="50" height="50" relative="1" as="geometry">
            <mxPoint x="61" y="287.66" as="sourcePoint" />
            <mxPoint x="157" y="287.83000000000004" as="targetPoint" />
          </mxGeometry>
        </mxCell>
        <mxCell id="YKE_uLJafV-SLsbZgX32-7" value="" style="endArrow=none;html=1;rounded=0;" parent="1" edge="1">
          <mxGeometry width="50" height="50" relative="1" as="geometry">
            <mxPoint x="61" y="317.6" as="sourcePoint" />
            <mxPoint x="157" y="317.6" as="targetPoint" />
          </mxGeometry>
        </mxCell>
        <mxCell id="YKE_uLJafV-SLsbZgX32-8" value="" style="endArrow=none;html=1;rounded=0;" parent="1" edge="1">
          <mxGeometry width="50" height="50" relative="1" as="geometry">
            <mxPoint x="61" y="327.43000000000006" as="sourcePoint" />
            <mxPoint x="157" y="327.6" as="targetPoint" />
          </mxGeometry>
        </mxCell>
        <mxCell id="YKE_uLJafV-SLsbZgX32-9" value="" style="rounded=0;whiteSpace=wrap;html=1;" parent="1" vertex="1">
          <mxGeometry x="49" y="191" width="120" height="60" as="geometry" />
        </mxCell>
        <mxCell id="YKE_uLJafV-SLsbZgX32-10" value="" style="ellipse;whiteSpace=wrap;html=1;aspect=fixed;" parent="1" vertex="1">
          <mxGeometry x="69" y="83" width="80" height="80" as="geometry" />
        </mxCell>
        <mxCell id="YKE_uLJafV-SLsbZgX32-11" value="Diagram kontekstowy" style="text;html=1;align=center;verticalAlign=middle;resizable=0;points=[];autosize=1;strokeColor=none;fillColor=none;fontSize=22;" parent="1" vertex="1">
          <mxGeometry x="679.5" y="52" width="230" height="30" as="geometry" />
        </mxCell>
        <mxCell id="YKE_uLJafV-SLsbZgX32-12" value="Restauracja" style="rounded=0;whiteSpace=wrap;html=1;" parent="1" vertex="1">
          <mxGeometry x="736.5" y="108" width="120" height="60" as="geometry" />
        </mxCell>
        <mxCell id="YKE_uLJafV-SLsbZgX32-13" value="Administrator" style="rounded=0;whiteSpace=wrap;html=1;" parent="1" vertex="1">
          <mxGeometry x="1005" y="262" width="120" height="60" as="geometry" />
        </mxCell>
        <mxCell id="YKE_uLJafV-SLsbZgX32-14" value="Klient" style="rounded=0;whiteSpace=wrap;html=1;" parent="1" vertex="1">
          <mxGeometry x="456" y="262" width="120" height="60" as="geometry" />
        </mxCell>
        <mxCell id="YKE_uLJafV-SLsbZgX32-15" value="" style="endArrow=classic;startArrow=classic;html=1;rounded=0;exitX=1;exitY=0.5;exitDx=0;exitDy=0;" parent="1" source="YKE_uLJafV-SLsbZgX32-14" target="YKE_uLJafV-SLsbZgX32-16" edge="1">
          <mxGeometry width="50" height="50" relative="1" as="geometry">
            <mxPoint x="588" y="408" as="sourcePoint" />
            <mxPoint x="554" y="358" as="targetPoint" />
          </mxGeometry>
        </mxCell>
        <mxCell id="YKE_uLJafV-SLsbZgX32-16" value="Zamawianie&lt;div&gt;w Uber&lt;/div&gt;&lt;div&gt;Eats&lt;/div&gt;" style="ellipse;whiteSpace=wrap;html=1;aspect=fixed;" parent="1" vertex="1">
          <mxGeometry x="754.4999999999995" y="252" width="80" height="80" as="geometry" />
        </mxCell>
        <mxCell id="YKE_uLJafV-SLsbZgX32-17" value="" style="endArrow=classic;startArrow=classic;html=1;rounded=0;exitX=1;exitY=0.5;exitDx=0;exitDy=0;entryX=0;entryY=0.5;entryDx=0;entryDy=0;" parent="1" source="YKE_uLJafV-SLsbZgX32-16" target="YKE_uLJafV-SLsbZgX32-13" edge="1">
          <mxGeometry width="50" height="50" relative="1" as="geometry">
            <mxPoint x="588" y="304" as="sourcePoint" />
            <mxPoint x="767" y="304" as="targetPoint" />
          </mxGeometry>
        </mxCell>
        <mxCell id="YKE_uLJafV-SLsbZgX32-18" value="" style="endArrow=classic;startArrow=classic;html=1;rounded=0;exitX=0.5;exitY=1;exitDx=0;exitDy=0;" parent="1" source="YKE_uLJafV-SLsbZgX32-12" target="YKE_uLJafV-SLsbZgX32-16" edge="1">
          <mxGeometry width="50" height="50" relative="1" as="geometry">
            <mxPoint x="600" y="316" as="sourcePoint" />
            <mxPoint x="779" y="316" as="targetPoint" />
          </mxGeometry>
        </mxCell>
        <mxCell id="YKE_uLJafV-SLsbZgX32-19" value="decyzje" style="text;html=1;align=center;verticalAlign=middle;whiteSpace=wrap;rounded=0;" parent="1" vertex="1">
          <mxGeometry x="794.5" y="196" width="60" height="30" as="geometry" />
        </mxCell>
        <mxCell id="YKE_uLJafV-SLsbZgX32-20" value="kontakt" style="text;html=1;align=center;verticalAlign=middle;whiteSpace=wrap;rounded=0;" parent="1" vertex="1">
          <mxGeometry x="636" y="262" width="60" height="30" as="geometry" />
        </mxCell>
        <mxCell id="YKE_uLJafV-SLsbZgX32-21" value="nadzór" style="text;html=1;align=center;verticalAlign=middle;whiteSpace=wrap;rounded=0;" parent="1" vertex="1">
          <mxGeometry x="888" y="262" width="60" height="30" as="geometry" />
        </mxCell>
        <mxCell id="YKE_uLJafV-SLsbZgX32-22" value="" style="endArrow=none;html=1;rounded=0;" parent="1" edge="1">
          <mxGeometry width="50" height="50" relative="1" as="geometry">
            <mxPoint x="436" y="464.73" as="sourcePoint" />
            <mxPoint x="532" y="464.73" as="targetPoint" />
          </mxGeometry>
        </mxCell>
        <mxCell id="YKE_uLJafV-SLsbZgX32-23" value="" style="endArrow=none;html=1;rounded=0;" parent="1" edge="1">
          <mxGeometry width="50" height="50" relative="1" as="geometry">
            <mxPoint x="436" y="474.56000000000006" as="sourcePoint" />
            <mxPoint x="532" y="474.73" as="targetPoint" />
          </mxGeometry>
        </mxCell>
        <mxCell id="YKE_uLJafV-SLsbZgX32-24" value="" style="endArrow=none;html=1;rounded=0;" parent="1" edge="1">
          <mxGeometry width="50" height="50" relative="1" as="geometry">
            <mxPoint x="436" y="504.5" as="sourcePoint" />
            <mxPoint x="532" y="504.5" as="targetPoint" />
          </mxGeometry>
        </mxCell>
        <mxCell id="YKE_uLJafV-SLsbZgX32-25" value="" style="endArrow=none;html=1;rounded=0;" parent="1" edge="1">
          <mxGeometry width="50" height="50" relative="1" as="geometry">
            <mxPoint x="436" y="514.33" as="sourcePoint" />
            <mxPoint x="532" y="514.5" as="targetPoint" />
          </mxGeometry>
        </mxCell>
        <mxCell id="YKE_uLJafV-SLsbZgX32-26" value="&lt;span style=&quot;color: rgb(0, 0, 0); font-family: Helvetica; font-size: 12px; font-style: normal; font-variant-ligatures: normal; font-variant-caps: normal; font-weight: 400; letter-spacing: normal; orphans: 2; text-align: center; text-indent: 0px; text-transform: none; widows: 2; word-spacing: 0px; -webkit-text-stroke-width: 0px; white-space: normal; background-color: rgb(251, 251, 251); text-decoration-thickness: initial; text-decoration-style: initial; text-decoration-color: initial; display: inline !important; float: none;&quot;&gt;Komentarze&lt;/span&gt;" style="text;whiteSpace=wrap;html=1;" parent="1" vertex="1">
          <mxGeometry x="448" y="476" width="72" height="24" as="geometry" />
        </mxCell>
        <mxCell id="YKE_uLJafV-SLsbZgX32-27" value="6.Dodawanie&lt;div&gt;komentarzy&lt;/div&gt;" style="ellipse;whiteSpace=wrap;html=1;aspect=fixed;" parent="1" vertex="1">
          <mxGeometry x="444" y="558" width="80" height="80" as="geometry" />
        </mxCell>
        <mxCell id="YKE_uLJafV-SLsbZgX32-28" value="5.Składanie&lt;div&gt;zamówień&lt;/div&gt;" style="ellipse;whiteSpace=wrap;html=1;aspect=fixed;" parent="1" vertex="1">
          <mxGeometry x="688" y="678" width="80" height="80" as="geometry" />
        </mxCell>
        <mxCell id="YKE_uLJafV-SLsbZgX32-29" value="3.Obsługa zamównień" style="ellipse;whiteSpace=wrap;html=1;aspect=fixed;" parent="1" vertex="1">
          <mxGeometry x="840" y="786.5" width="80" height="80" as="geometry" />
        </mxCell>
        <mxCell id="YKE_uLJafV-SLsbZgX32-30" value="1.Logowanie" style="ellipse;whiteSpace=wrap;html=1;aspect=fixed;" parent="1" vertex="1">
          <mxGeometry x="444" y="904" width="80" height="80" as="geometry" />
        </mxCell>
        <mxCell id="YKE_uLJafV-SLsbZgX32-31" value="2.Zarządzanie&lt;div&gt;kontami&lt;/div&gt;&lt;div&gt;użytkowników&lt;/div&gt;" style="ellipse;whiteSpace=wrap;html=1;aspect=fixed;" parent="1" vertex="1">
          <mxGeometry x="1076" y="1014" width="86" height="86" as="geometry" />
        </mxCell>
        <mxCell id="YKE_uLJafV-SLsbZgX32-32" value="Klient" style="rounded=0;whiteSpace=wrap;html=1;" parent="1" vertex="1">
          <mxGeometry x="424" y="796" width="120" height="60" as="geometry" />
        </mxCell>
        <mxCell id="YKE_uLJafV-SLsbZgX32-33" value="Restauracja" style="rounded=0;whiteSpace=wrap;html=1;" parent="1" vertex="1">
          <mxGeometry x="820" y="914" width="120" height="60" as="geometry" />
        </mxCell>
        <mxCell id="YKE_uLJafV-SLsbZgX32-34" value="Administrator" style="rounded=0;whiteSpace=wrap;html=1;" parent="1" vertex="1">
          <mxGeometry x="1059" y="914" width="120" height="60" as="geometry" />
        </mxCell>
        <mxCell id="YKE_uLJafV-SLsbZgX32-35" value="" style="endArrow=none;html=1;rounded=0;" parent="1" edge="1">
          <mxGeometry width="50" height="50" relative="1" as="geometry">
            <mxPoint x="963" y="692.6099999999999" as="sourcePoint" />
            <mxPoint x="1059" y="692.6099999999999" as="targetPoint" />
          </mxGeometry>
        </mxCell>
        <mxCell id="YKE_uLJafV-SLsbZgX32-36" value="" style="endArrow=none;html=1;rounded=0;" parent="1" edge="1">
          <mxGeometry width="50" height="50" relative="1" as="geometry">
            <mxPoint x="963" y="702.4399999999998" as="sourcePoint" />
            <mxPoint x="1059" y="702.6099999999999" as="targetPoint" />
          </mxGeometry>
        </mxCell>
        <mxCell id="YKE_uLJafV-SLsbZgX32-37" value="" style="endArrow=none;html=1;rounded=0;" parent="1" edge="1">
          <mxGeometry width="50" height="50" relative="1" as="geometry">
            <mxPoint x="963" y="732.3799999999999" as="sourcePoint" />
            <mxPoint x="1059" y="732.3799999999999" as="targetPoint" />
          </mxGeometry>
        </mxCell>
        <mxCell id="YKE_uLJafV-SLsbZgX32-38" value="" style="endArrow=none;html=1;rounded=0;" parent="1" edge="1">
          <mxGeometry width="50" height="50" relative="1" as="geometry">
            <mxPoint x="963" y="742.21" as="sourcePoint" />
            <mxPoint x="1059" y="742.3799999999999" as="targetPoint" />
          </mxGeometry>
        </mxCell>
        <mxCell id="YKE_uLJafV-SLsbZgX32-39" value="" style="endArrow=none;html=1;rounded=0;" parent="1" edge="1">
          <mxGeometry width="50" height="50" relative="1" as="geometry">
            <mxPoint x="436" y="1031.22" as="sourcePoint" />
            <mxPoint x="532" y="1031.22" as="targetPoint" />
          </mxGeometry>
        </mxCell>
        <mxCell id="YKE_uLJafV-SLsbZgX32-40" value="" style="endArrow=none;html=1;rounded=0;" parent="1" edge="1">
          <mxGeometry width="50" height="50" relative="1" as="geometry">
            <mxPoint x="436" y="1041.0500000000002" as="sourcePoint" />
            <mxPoint x="532" y="1041.22" as="targetPoint" />
          </mxGeometry>
        </mxCell>
        <mxCell id="YKE_uLJafV-SLsbZgX32-41" value="" style="endArrow=none;html=1;rounded=0;" parent="1" edge="1">
          <mxGeometry width="50" height="50" relative="1" as="geometry">
            <mxPoint x="436" y="1070.99" as="sourcePoint" />
            <mxPoint x="532" y="1070.99" as="targetPoint" />
          </mxGeometry>
        </mxCell>
        <mxCell id="YKE_uLJafV-SLsbZgX32-42" value="" style="endArrow=none;html=1;rounded=0;" parent="1" edge="1">
          <mxGeometry width="50" height="50" relative="1" as="geometry">
            <mxPoint x="436" y="1080.8200000000002" as="sourcePoint" />
            <mxPoint x="532" y="1080.99" as="targetPoint" />
          </mxGeometry>
        </mxCell>
        <mxCell id="YKE_uLJafV-SLsbZgX32-43" value="" style="endArrow=none;html=1;rounded=0;" parent="1" edge="1">
          <mxGeometry width="50" height="50" relative="1" as="geometry">
            <mxPoint x="956.25" y="525.61" as="sourcePoint" />
            <mxPoint x="1052.25" y="525.61" as="targetPoint" />
          </mxGeometry>
        </mxCell>
        <mxCell id="YKE_uLJafV-SLsbZgX32-44" value="" style="endArrow=none;html=1;rounded=0;" parent="1" edge="1">
          <mxGeometry width="50" height="50" relative="1" as="geometry">
            <mxPoint x="956.25" y="535.44" as="sourcePoint" />
            <mxPoint x="1052.25" y="535.61" as="targetPoint" />
          </mxGeometry>
        </mxCell>
        <mxCell id="YKE_uLJafV-SLsbZgX32-45" value="" style="endArrow=none;html=1;rounded=0;" parent="1" edge="1">
          <mxGeometry width="50" height="50" relative="1" as="geometry">
            <mxPoint x="956.25" y="565.38" as="sourcePoint" />
            <mxPoint x="1052.25" y="565.38" as="targetPoint" />
          </mxGeometry>
        </mxCell>
        <mxCell id="YKE_uLJafV-SLsbZgX32-46" value="" style="endArrow=none;html=1;rounded=0;" parent="1" edge="1">
          <mxGeometry width="50" height="50" relative="1" as="geometry">
            <mxPoint x="956.25" y="575.21" as="sourcePoint" />
            <mxPoint x="1052.25" y="575.38" as="targetPoint" />
          </mxGeometry>
        </mxCell>
        <mxCell id="YKE_uLJafV-SLsbZgX32-47" value="" style="endArrow=none;html=1;rounded=0;" parent="1" edge="1">
          <mxGeometry width="50" height="50" relative="1" as="geometry">
            <mxPoint x="830" y="688.5" as="sourcePoint" />
            <mxPoint x="926" y="688.5" as="targetPoint" />
          </mxGeometry>
        </mxCell>
        <mxCell id="YKE_uLJafV-SLsbZgX32-48" value="" style="endArrow=none;html=1;rounded=0;" parent="1" edge="1">
          <mxGeometry width="50" height="50" relative="1" as="geometry">
            <mxPoint x="830" y="698.33" as="sourcePoint" />
            <mxPoint x="926" y="698.5" as="targetPoint" />
          </mxGeometry>
        </mxCell>
        <mxCell id="YKE_uLJafV-SLsbZgX32-49" value="" style="endArrow=none;html=1;rounded=0;" parent="1" edge="1">
          <mxGeometry width="50" height="50" relative="1" as="geometry">
            <mxPoint x="830" y="728.27" as="sourcePoint" />
            <mxPoint x="926" y="728.27" as="targetPoint" />
          </mxGeometry>
        </mxCell>
        <mxCell id="YKE_uLJafV-SLsbZgX32-50" value="" style="endArrow=none;html=1;rounded=0;" parent="1" edge="1">
          <mxGeometry width="50" height="50" relative="1" as="geometry">
            <mxPoint x="830" y="738.1" as="sourcePoint" />
            <mxPoint x="926" y="738.27" as="targetPoint" />
          </mxGeometry>
        </mxCell>
        <mxCell id="YKE_uLJafV-SLsbZgX32-51" value="&lt;span style=&quot;color: rgb(0, 0, 0); font-family: Helvetica; font-size: 12px; font-style: normal; font-variant-ligatures: normal; font-variant-caps: normal; font-weight: 400; letter-spacing: normal; orphans: 2; text-align: center; text-indent: 0px; text-transform: none; widows: 2; word-spacing: 0px; -webkit-text-stroke-width: 0px; white-space: normal; background-color: rgb(251, 251, 251); text-decoration-thickness: initial; text-decoration-style: initial; text-decoration-color: initial; display: inline !important; float: none;&quot;&gt;Zamówienia&amp;nbsp;&lt;/span&gt;" style="text;whiteSpace=wrap;html=1;" parent="1" vertex="1">
          <mxGeometry x="841" y="699.77" width="108" height="36" as="geometry" />
        </mxCell>
        <mxCell id="YKE_uLJafV-SLsbZgX32-52" value="&lt;span style=&quot;color: rgb(0, 0, 0); font-family: Helvetica; font-size: 12px; font-style: normal; font-variant-ligatures: normal; font-variant-caps: normal; font-weight: 400; letter-spacing: normal; orphans: 2; text-align: center; text-indent: 0px; text-transform: none; widows: 2; word-spacing: 0px; -webkit-text-stroke-width: 0px; white-space: normal; background-color: rgb(251, 251, 251); text-decoration-thickness: initial; text-decoration-style: initial; text-decoration-color: initial; display: inline !important; float: none;&quot;&gt;Potrawy&lt;/span&gt;" style="text;whiteSpace=wrap;html=1;" parent="1" vertex="1">
          <mxGeometry x="975" y="704.61" width="84" height="36" as="geometry" />
        </mxCell>
        <mxCell id="YKE_uLJafV-SLsbZgX32-53" value="&lt;span style=&quot;color: rgb(0, 0, 0); font-family: Helvetica; font-size: 12px; font-style: normal; font-variant-ligatures: normal; font-variant-caps: normal; font-weight: 400; letter-spacing: normal; orphans: 2; text-align: center; text-indent: 0px; text-transform: none; widows: 2; word-spacing: 0px; -webkit-text-stroke-width: 0px; white-space: normal; background-color: rgb(251, 251, 251); text-decoration-thickness: initial; text-decoration-style: initial; text-decoration-color: initial; display: inline !important; float: none;&quot;&gt;Użytkownicy&lt;/span&gt;" style="text;whiteSpace=wrap;html=1;" parent="1" vertex="1">
          <mxGeometry x="448" y="1041" width="72" height="21" as="geometry" />
        </mxCell>
        <mxCell id="YKE_uLJafV-SLsbZgX32-54" value="&lt;span style=&quot;color: rgb(0, 0, 0); font-family: Helvetica; font-size: 12px; font-style: normal; font-variant-ligatures: normal; font-variant-caps: normal; font-weight: 400; letter-spacing: normal; orphans: 2; text-align: center; text-indent: 0px; text-transform: none; widows: 2; word-spacing: 0px; -webkit-text-stroke-width: 0px; white-space: normal; background-color: rgb(251, 251, 251); text-decoration-thickness: initial; text-decoration-style: initial; text-decoration-color: initial; display: inline !important; float: none;&quot;&gt;Restauracje&lt;/span&gt;" style="text;whiteSpace=wrap;html=1;" parent="1" vertex="1">
          <mxGeometry x="969.75" y="537.88" width="66.25" height="36" as="geometry" />
        </mxCell>
        <mxCell id="YKE_uLJafV-SLsbZgX32-55" value="" style="endArrow=none;html=1;rounded=0;" parent="1" edge="1">
          <mxGeometry width="50" height="50" relative="1" as="geometry">
            <mxPoint x="524" y="692.49" as="sourcePoint" />
            <mxPoint x="620" y="692.49" as="targetPoint" />
          </mxGeometry>
        </mxCell>
        <mxCell id="YKE_uLJafV-SLsbZgX32-56" value="" style="endArrow=none;html=1;rounded=0;" parent="1" edge="1">
          <mxGeometry width="50" height="50" relative="1" as="geometry">
            <mxPoint x="524" y="702.3200000000002" as="sourcePoint" />
            <mxPoint x="620" y="702.49" as="targetPoint" />
          </mxGeometry>
        </mxCell>
        <mxCell id="YKE_uLJafV-SLsbZgX32-57" value="" style="endArrow=none;html=1;rounded=0;" parent="1" edge="1">
          <mxGeometry width="50" height="50" relative="1" as="geometry">
            <mxPoint x="524" y="732.26" as="sourcePoint" />
            <mxPoint x="620" y="732.26" as="targetPoint" />
          </mxGeometry>
        </mxCell>
        <mxCell id="YKE_uLJafV-SLsbZgX32-58" value="" style="endArrow=none;html=1;rounded=0;" parent="1" edge="1">
          <mxGeometry width="50" height="50" relative="1" as="geometry">
            <mxPoint x="524" y="742.0900000000001" as="sourcePoint" />
            <mxPoint x="620" y="742.26" as="targetPoint" />
          </mxGeometry>
        </mxCell>
        <mxCell id="YKE_uLJafV-SLsbZgX32-59" value="&lt;span style=&quot;color: rgb(0, 0, 0); font-family: Helvetica; font-size: 12px; font-style: normal; font-variant-ligatures: normal; font-variant-caps: normal; font-weight: 400; letter-spacing: normal; orphans: 2; text-align: center; text-indent: 0px; text-transform: none; widows: 2; word-spacing: 0px; -webkit-text-stroke-width: 0px; white-space: normal; background-color: rgb(251, 251, 251); text-decoration-thickness: initial; text-decoration-style: initial; text-decoration-color: initial; display: inline !important; float: none;&quot;&gt;Koszyk&lt;/span&gt;" style="text;whiteSpace=wrap;html=1;" parent="1" vertex="1">
          <mxGeometry x="548" y="706.12" width="36" height="36" as="geometry" />
        </mxCell>
        <mxCell id="YKE_uLJafV-SLsbZgX32-60" value="4.Zarządzanie restauracją" style="ellipse;whiteSpace=wrap;html=1;aspect=fixed;" parent="1" vertex="1">
          <mxGeometry x="1079" y="796" width="80" height="80" as="geometry" />
        </mxCell>
        <mxCell id="YKE_uLJafV-SLsbZgX32-61" value="" style="endArrow=classic;html=1;rounded=0;exitX=0.5;exitY=0;exitDx=0;exitDy=0;" parent="1" edge="1">
          <mxGeometry width="50" height="50" relative="1" as="geometry">
            <mxPoint x="484" y="562" as="sourcePoint" />
            <mxPoint x="484" y="514" as="targetPoint" />
          </mxGeometry>
        </mxCell>
        <mxCell id="YKE_uLJafV-SLsbZgX32-62" value="" style="endArrow=classic;html=1;rounded=0;exitX=0.5;exitY=0;exitDx=0;exitDy=0;entryX=0.5;entryY=1;entryDx=0;entryDy=0;" parent="1" source="YKE_uLJafV-SLsbZgX32-32" target="YKE_uLJafV-SLsbZgX32-27" edge="1">
          <mxGeometry width="50" height="50" relative="1" as="geometry">
            <mxPoint x="988" y="908" as="sourcePoint" />
            <mxPoint x="1038" y="858" as="targetPoint" />
          </mxGeometry>
        </mxCell>
        <mxCell id="YKE_uLJafV-SLsbZgX32-63" value="" style="endArrow=classic;html=1;rounded=0;exitX=0.5;exitY=1;exitDx=0;exitDy=0;entryX=0.5;entryY=0;entryDx=0;entryDy=0;" parent="1" source="YKE_uLJafV-SLsbZgX32-32" target="YKE_uLJafV-SLsbZgX32-30" edge="1">
          <mxGeometry width="50" height="50" relative="1" as="geometry">
            <mxPoint x="988" y="908" as="sourcePoint" />
            <mxPoint x="1038" y="858" as="targetPoint" />
          </mxGeometry>
        </mxCell>
        <mxCell id="YKE_uLJafV-SLsbZgX32-64" value="" style="endArrow=classic;html=1;rounded=0;exitX=0;exitY=0.5;exitDx=0;exitDy=0;entryX=1;entryY=0.5;entryDx=0;entryDy=0;" parent="1" source="YKE_uLJafV-SLsbZgX32-33" target="YKE_uLJafV-SLsbZgX32-30" edge="1">
          <mxGeometry width="50" height="50" relative="1" as="geometry">
            <mxPoint x="1096" y="908" as="sourcePoint" />
            <mxPoint x="1146" y="858" as="targetPoint" />
            <Array as="points" />
          </mxGeometry>
        </mxCell>
        <mxCell id="YKE_uLJafV-SLsbZgX32-65" value="" style="endArrow=classic;html=1;rounded=0;entryX=0.5;entryY=1;entryDx=0;entryDy=0;" parent="1" target="YKE_uLJafV-SLsbZgX32-30" edge="1">
          <mxGeometry width="50" height="50" relative="1" as="geometry">
            <mxPoint x="484" y="1028" as="sourcePoint" />
            <mxPoint x="1146" y="980" as="targetPoint" />
          </mxGeometry>
        </mxCell>
        <mxCell id="YKE_uLJafV-SLsbZgX32-66" value="" style="endArrow=classic;startArrow=classic;html=1;rounded=0;entryX=0;entryY=0.5;entryDx=0;entryDy=0;" parent="1" target="YKE_uLJafV-SLsbZgX32-28" edge="1">
          <mxGeometry width="50" height="50" relative="1" as="geometry">
            <mxPoint x="616" y="718" as="sourcePoint" />
            <mxPoint x="1170" y="870" as="targetPoint" />
          </mxGeometry>
        </mxCell>
        <mxCell id="YKE_uLJafV-SLsbZgX32-67" value="" style="endArrow=classic;startArrow=classic;html=1;rounded=0;exitX=1;exitY=0.5;exitDx=0;exitDy=0;" parent="1" source="YKE_uLJafV-SLsbZgX32-32" edge="1">
          <mxGeometry width="50" height="50" relative="1" as="geometry">
            <mxPoint x="1120" y="920" as="sourcePoint" />
            <mxPoint x="724" y="762" as="targetPoint" />
            <Array as="points">
              <mxPoint x="724" y="826" />
            </Array>
          </mxGeometry>
        </mxCell>
        <mxCell id="YKE_uLJafV-SLsbZgX32-68" value="" style="endArrow=classic;startArrow=classic;html=1;rounded=0;exitX=1;exitY=0.5;exitDx=0;exitDy=0;" parent="1" source="YKE_uLJafV-SLsbZgX32-28" edge="1">
          <mxGeometry width="50" height="50" relative="1" as="geometry">
            <mxPoint x="1120" y="920" as="sourcePoint" />
            <mxPoint x="832" y="717" as="targetPoint" />
          </mxGeometry>
        </mxCell>
        <mxCell id="YKE_uLJafV-SLsbZgX32-69" value="" style="endArrow=classic;startArrow=classic;html=1;rounded=0;exitX=0.5;exitY=0;exitDx=0;exitDy=0;entryX=0.5;entryY=1;entryDx=0;entryDy=0;" parent="1" source="YKE_uLJafV-SLsbZgX32-33" target="YKE_uLJafV-SLsbZgX32-29" edge="1">
          <mxGeometry width="50" height="50" relative="1" as="geometry">
            <mxPoint x="1186" y="1022.5" as="sourcePoint" />
            <mxPoint x="1236" y="972.5" as="targetPoint" />
          </mxGeometry>
        </mxCell>
        <mxCell id="YKE_uLJafV-SLsbZgX32-70" value="" style="endArrow=classic;startArrow=classic;html=1;rounded=0;exitX=0.362;exitY=1.135;exitDx=0;exitDy=0;exitPerimeter=0;entryX=0.5;entryY=0;entryDx=0;entryDy=0;" parent="1" source="YKE_uLJafV-SLsbZgX32-51" target="YKE_uLJafV-SLsbZgX32-29" edge="1">
          <mxGeometry width="50" height="50" relative="1" as="geometry">
            <mxPoint x="1355" y="812.5" as="sourcePoint" />
            <mxPoint x="1405" y="762.5" as="targetPoint" />
          </mxGeometry>
        </mxCell>
        <mxCell id="YKE_uLJafV-SLsbZgX32-71" value="" style="endArrow=classic;html=1;rounded=0;entryX=0.5;entryY=0;entryDx=0;entryDy=0;" parent="1" target="YKE_uLJafV-SLsbZgX32-28" edge="1">
          <mxGeometry width="50" height="50" relative="1" as="geometry">
            <mxPoint x="952" y="546" as="sourcePoint" />
            <mxPoint x="1266" y="762" as="targetPoint" />
            <Array as="points">
              <mxPoint x="728" y="546" />
            </Array>
          </mxGeometry>
        </mxCell>
        <mxCell id="YKE_uLJafV-SLsbZgX32-72" value="" style="endArrow=classic;html=1;rounded=0;" parent="1" edge="1">
          <mxGeometry width="50" height="50" relative="1" as="geometry">
            <mxPoint x="1012" y="690" as="sourcePoint" />
            <mxPoint x="736" y="642" as="targetPoint" />
            <Array as="points">
              <mxPoint x="1012" y="642" />
              <mxPoint x="940" y="642" />
            </Array>
          </mxGeometry>
        </mxCell>
        <mxCell id="YKE_uLJafV-SLsbZgX32-73" value="" style="endArrow=classic;html=1;rounded=0;entryX=1;entryY=0.5;entryDx=0;entryDy=0;" parent="1" target="YKE_uLJafV-SLsbZgX32-27" edge="1">
          <mxGeometry width="50" height="50" relative="1" as="geometry">
            <mxPoint x="1000" y="522" as="sourcePoint" />
            <mxPoint x="1290" y="762" as="targetPoint" />
            <Array as="points">
              <mxPoint x="1000" y="474" />
              <mxPoint x="616" y="474" />
              <mxPoint x="616" y="598" />
            </Array>
          </mxGeometry>
        </mxCell>
        <mxCell id="YKE_uLJafV-SLsbZgX32-74" value="" style="endArrow=classic;html=1;rounded=0;exitX=1;exitY=0.25;exitDx=0;exitDy=0;" parent="1" source="YKE_uLJafV-SLsbZgX32-52" edge="1">
          <mxGeometry width="50" height="50" relative="1" as="geometry">
            <mxPoint x="1012" y="690" as="sourcePoint" />
            <mxPoint x="808" y="474" as="targetPoint" />
            <Array as="points">
              <mxPoint x="1132" y="714" />
              <mxPoint x="1132" y="426" />
              <mxPoint x="808" y="426" />
            </Array>
          </mxGeometry>
        </mxCell>
        <mxCell id="YKE_uLJafV-SLsbZgX32-75" value="" style="endArrow=classic;html=1;rounded=0;exitX=1;exitY=0.5;exitDx=0;exitDy=0;" parent="1" source="YKE_uLJafV-SLsbZgX32-60" edge="1">
          <mxGeometry width="50" height="50" relative="1" as="geometry">
            <mxPoint x="1276" y="752" as="sourcePoint" />
            <mxPoint x="1060" y="546" as="targetPoint" />
            <Array as="points">
              <mxPoint x="1180" y="836" />
              <mxPoint x="1180" y="546" />
            </Array>
          </mxGeometry>
        </mxCell>
        <mxCell id="YKE_uLJafV-SLsbZgX32-76" value="" style="endArrow=classic;html=1;rounded=0;exitX=0.5;exitY=0;exitDx=0;exitDy=0;entryX=0.5;entryY=1;entryDx=0;entryDy=0;" parent="1" source="YKE_uLJafV-SLsbZgX32-34" target="YKE_uLJafV-SLsbZgX32-60" edge="1">
          <mxGeometry width="50" height="50" relative="1" as="geometry">
            <mxPoint x="1769" y="752" as="sourcePoint" />
            <mxPoint x="1819" y="702" as="targetPoint" />
          </mxGeometry>
        </mxCell>
        <mxCell id="YKE_uLJafV-SLsbZgX32-77" value="" style="endArrow=classic;html=1;rounded=0;entryX=0.5;entryY=0;entryDx=0;entryDy=0;exitX=0.5;exitY=1;exitDx=0;exitDy=0;" parent="1" source="YKE_uLJafV-SLsbZgX32-34" target="YKE_uLJafV-SLsbZgX32-31" edge="1">
          <mxGeometry width="50" height="50" relative="1" as="geometry">
            <mxPoint x="1121" y="978" as="sourcePoint" />
            <mxPoint x="1483" y="1050" as="targetPoint" />
          </mxGeometry>
        </mxCell>
        <mxCell id="YKE_uLJafV-SLsbZgX32-78" value="" style="endArrow=classic;html=1;rounded=0;entryX=0;entryY=0.5;entryDx=0;entryDy=0;" parent="1" target="YKE_uLJafV-SLsbZgX32-31" edge="1">
          <mxGeometry width="50" height="50" relative="1" as="geometry">
            <mxPoint x="532" y="1057" as="sourcePoint" />
            <mxPoint x="1012" y="1046" as="targetPoint" />
          </mxGeometry>
        </mxCell>
        <mxCell id="YKE_uLJafV-SLsbZgX32-79" value="" style="endArrow=classic;html=1;rounded=0;exitX=0.5;exitY=1;exitDx=0;exitDy=0;" parent="1" source="YKE_uLJafV-SLsbZgX32-31" edge="1">
          <mxGeometry width="50" height="50" relative="1" as="geometry">
            <mxPoint x="1504" y="860" as="sourcePoint" />
            <mxPoint x="484" y="1086" as="targetPoint" />
            <Array as="points">
              <mxPoint x="1120" y="1122" />
              <mxPoint x="484" y="1122" />
            </Array>
          </mxGeometry>
        </mxCell>
        <mxCell id="YKE_uLJafV-SLsbZgX32-80" value="" style="endArrow=classic;startArrow=classic;html=1;rounded=0;exitX=0;exitY=0.5;exitDx=0;exitDy=0;entryX=0.5;entryY=1;entryDx=0;entryDy=0;" parent="1" source="YKE_uLJafV-SLsbZgX32-60" target="YKE_uLJafV-SLsbZgX32-52" edge="1">
          <mxGeometry width="50" height="50" relative="1" as="geometry">
            <mxPoint x="1456" y="788" as="sourcePoint" />
            <mxPoint x="1506" y="738" as="targetPoint" />
            <Array as="points">
              <mxPoint x="1017" y="836" />
            </Array>
          </mxGeometry>
        </mxCell>
        <mxCell id="YKE_uLJafV-SLsbZgX32-81" value="Dane restauracji" style="text;html=1;align=center;verticalAlign=middle;whiteSpace=wrap;rounded=0;" parent="1" vertex="1">
          <mxGeometry x="768" y="471" width="96" height="30" as="geometry" />
        </mxCell>
        <mxCell id="YKE_uLJafV-SLsbZgX32-82" value="Dane restauracji" style="text;html=1;align=center;verticalAlign=middle;whiteSpace=wrap;rounded=0;" parent="1" vertex="1">
          <mxGeometry x="751" y="544" width="96" height="30" as="geometry" />
        </mxCell>
        <mxCell id="YKE_uLJafV-SLsbZgX32-83" value="Dane potrawy" style="text;html=1;align=center;verticalAlign=middle;whiteSpace=wrap;rounded=0;" parent="1" vertex="1">
          <mxGeometry x="832" y="614" width="96" height="30" as="geometry" />
        </mxCell>
        <mxCell id="YKE_uLJafV-SLsbZgX32-84" value="Dane&amp;nbsp;&lt;span style=&quot;background-color: initial;&quot;&gt;zamównienia&lt;/span&gt;" style="text;html=1;align=center;verticalAlign=middle;whiteSpace=wrap;rounded=0;" parent="1" vertex="1">
          <mxGeometry x="789" y="752" width="72" height="30" as="geometry" />
        </mxCell>
        <mxCell id="YKE_uLJafV-SLsbZgX32-85" value="Dane&amp;nbsp;&lt;span style=&quot;background-color: initial;&quot;&gt;restauracji&lt;/span&gt;" style="text;html=1;align=center;verticalAlign=middle;whiteSpace=wrap;rounded=0;" parent="1" vertex="1">
          <mxGeometry x="787" y="876" width="85" height="30" as="geometry" />
        </mxCell>
        <mxCell id="YKE_uLJafV-SLsbZgX32-86" value="Zamówienie&lt;div&gt;klienta&lt;/div&gt;" style="text;html=1;align=center;verticalAlign=middle;whiteSpace=wrap;rounded=0;" parent="1" vertex="1">
          <mxGeometry x="628" y="683" width="60" height="30" as="geometry" />
        </mxCell>
        <mxCell id="YKE_uLJafV-SLsbZgX32-87" value="Dane&lt;div&gt;użytkownika&lt;/div&gt;" style="text;html=1;align=center;verticalAlign=middle;whiteSpace=wrap;rounded=0;" parent="1" vertex="1">
          <mxGeometry x="415" y="709.12" width="60" height="30" as="geometry" />
        </mxCell>
        <mxCell id="YKE_uLJafV-SLsbZgX32-88" value="Dane zamówienia" style="text;html=1;align=center;verticalAlign=middle;whiteSpace=wrap;rounded=0;" parent="1" vertex="1">
          <mxGeometry x="592" y="798" width="108" height="30" as="geometry" />
        </mxCell>
        <mxCell id="YKE_uLJafV-SLsbZgX32-89" value="Dane&lt;div&gt;użytkownika&lt;/div&gt;" style="text;html=1;align=center;verticalAlign=middle;whiteSpace=wrap;rounded=0;" parent="1" vertex="1">
          <mxGeometry x="373" y="995" width="132" height="30" as="geometry" />
        </mxCell>
        <mxCell id="YKE_uLJafV-SLsbZgX32-90" value="Dane użytkownika" style="text;html=1;align=center;verticalAlign=middle;whiteSpace=wrap;rounded=0;" parent="1" vertex="1">
          <mxGeometry x="727" y="1028" width="132" height="30" as="geometry" />
        </mxCell>
        <mxCell id="YKE_uLJafV-SLsbZgX32-91" value="Dane użytkownika" style="text;html=1;align=center;verticalAlign=middle;whiteSpace=wrap;rounded=0;" parent="1" vertex="1">
          <mxGeometry x="727" y="1120" width="132" height="30" as="geometry" />
        </mxCell>
        <mxCell id="YKE_uLJafV-SLsbZgX32-92" value="Dane użytkowników" style="text;html=1;align=center;verticalAlign=middle;whiteSpace=wrap;rounded=0;" parent="1" vertex="1">
          <mxGeometry x="993" y="984" width="132" height="30" as="geometry" />
        </mxCell>
        <mxCell id="YKE_uLJafV-SLsbZgX32-93" value="Dane restauracji" style="text;html=1;align=center;verticalAlign=middle;whiteSpace=wrap;rounded=0;" parent="1" vertex="1">
          <mxGeometry x="1000" y="880" width="132" height="30" as="geometry" />
        </mxCell>
        <mxCell id="YKE_uLJafV-SLsbZgX32-94" value="Dane&lt;div&gt;restauracji&lt;/div&gt;" style="text;html=1;align=center;verticalAlign=middle;whiteSpace=wrap;rounded=0;" parent="1" vertex="1">
          <mxGeometry x="1151" y="664" width="132" height="30" as="geometry" />
        </mxCell>
        <mxCell id="YKE_uLJafV-SLsbZgX32-95" value="Dane potrawy" style="text;html=1;align=center;verticalAlign=middle;whiteSpace=wrap;rounded=0;" parent="1" vertex="1">
          <mxGeometry x="1013" y="766" width="96" height="30" as="geometry" />
        </mxCell>
        <mxCell id="YKE_uLJafV-SLsbZgX32-96" value="Dane&lt;div&gt;użytkownika&lt;/div&gt;" style="text;html=1;align=center;verticalAlign=middle;whiteSpace=wrap;rounded=0;" parent="1" vertex="1">
          <mxGeometry x="375" y="867" width="132" height="30" as="geometry" />
        </mxCell>
        <mxCell id="YKE_uLJafV-SLsbZgX32-97" value="Dane&amp;nbsp;&lt;span style=&quot;background-color: initial;&quot;&gt;restauracji&lt;/span&gt;" style="text;html=1;align=center;verticalAlign=middle;whiteSpace=wrap;rounded=0;" parent="1" vertex="1">
          <mxGeometry x="628" y="918" width="85" height="30" as="geometry" />
        </mxCell>
        <mxCell id="YKE_uLJafV-SLsbZgX32-99" value="" style="endArrow=none;html=1;rounded=0;" parent="1" edge="1">
          <mxGeometry width="50" height="50" relative="1" as="geometry">
            <mxPoint x="9" y="360" as="sourcePoint" />
            <mxPoint x="9" y="20" as="targetPoint" />
          </mxGeometry>
        </mxCell>
        <mxCell id="YKE_uLJafV-SLsbZgX32-100" value="" style="endArrow=none;html=1;rounded=0;" parent="1" edge="1">
          <mxGeometry width="50" height="50" relative="1" as="geometry">
            <mxPoint x="389" y="360" as="sourcePoint" />
            <mxPoint x="389" y="20" as="targetPoint" />
          </mxGeometry>
        </mxCell>
        <mxCell id="YKE_uLJafV-SLsbZgX32-101" value="" style="endArrow=none;html=1;rounded=0;" parent="1" edge="1">
          <mxGeometry width="50" height="50" relative="1" as="geometry">
            <mxPoint x="389" y="20" as="sourcePoint" />
            <mxPoint x="9" y="20" as="targetPoint" />
          </mxGeometry>
        </mxCell>
        <mxCell id="YKE_uLJafV-SLsbZgX32-102" value="" style="endArrow=none;html=1;rounded=0;" parent="1" edge="1">
          <mxGeometry width="50" height="50" relative="1" as="geometry">
            <mxPoint x="9" y="360" as="sourcePoint" />
            <mxPoint x="389" y="360" as="targetPoint" />
          </mxGeometry>
        </mxCell>
      </root>
    </mxGraphModel>
  </diagram>
</mxfile>
